<svg width="207" height="153" viewBox="0 0 207 153" fill="none" xmlns="http://www.w3.org/2000/svg">
<path d="M175.917 30.6602L149.152 46.9426C146.246 48.4289 142.934 49.3748 139.419 49.3748C137.121 49.3748 134.891 48.9694 132.796 48.2938L99.3395 31.7412C95.149 29.6468 90.1475 29.6468 85.957 31.7412L51.9601 52.1448C50.7435 52.888 50 54.1716 50 55.5904V148.623C50 151.731 55.3395 152.474 58.043 150.852L82.7127 136.056C85.8894 134.3 89.4716 133.219 93.3241 133.219C95.6897 133.219 97.9201 133.624 100.083 134.367L134.283 151.258C138.203 153.217 142.866 153.014 146.651 150.852L178.215 131.597C180.513 130.178 181.865 127.746 181.865 125.044L182 33.0924C182 29.9846 178.147 28.4307 175.917 30.6602Z" fill="#F0F1F5"/>
<path d="M153.281 53.2036C145.446 57.9313 135.788 58.269 127.616 54.2842L102.492 41.9247C96.0757 38.7504 88.5114 39.0205 82.2978 42.7351L64.7378 53.2711C60.6855 55.7025 58.2542 60.0925 58.2542 64.7527V134.52C58.2542 137.492 61.496 139.315 64.0625 137.762L79.6638 128.374C87.4983 123.646 97.1563 123.309 105.328 127.293L136.058 142.489C138.963 143.975 142.407 143.773 145.244 142.152L169.963 127.293C172.867 125.537 174.623 122.498 174.623 119.121L174.758 47.1251C174.758 44.1534 171.516 42.3299 168.95 43.8833L153.281 53.2036Z" fill="#C2D0EF"/>
<path opacity="0.1" d="M139.638 49.3539C137.342 49.3539 135.113 48.9487 133.019 48.2733L99.5878 31.7264C97.7642 30.8484 95.8056 30.3081 93.7795 30.173L93.847 133.237C96.0758 133.304 98.237 133.709 100.263 134.385L134.438 151.269C136.869 152.485 139.503 152.823 142.069 152.485L142.61 49.1513C141.597 49.2864 140.651 49.3539 139.638 49.3539Z" fill="black"/>
<path fill-rule="evenodd" clip-rule="evenodd" d="M82.1781 90.4533L86.0731 91.181C85.9776 91.694 85.7817 92.183 85.4967 92.62C85.2117 93.0571 84.8433 93.4335 84.4124 93.7278C83.9816 94.0221 83.4969 94.2284 82.9862 94.3349C82.4754 94.4414 81.9486 94.446 81.4361 94.3485L81.4008 94.339L81.3072 94.3214L80.9635 94.2538C78.9982 93.8535 77.0394 93.4219 75.0879 92.9592C70.1924 91.8038 65.343 90.4607 60.5506 88.933C55.061 87.1636 49.1706 84.9481 44.0327 82.2954C38.9997 79.691 34.2 76.4233 31.4104 72.3393C21.2643 57.4859 25.2823 38.1308 39.7071 28.2775C54.1319 18.4242 73.6228 21.7208 83.7689 36.5743C86.5586 40.6583 87.8568 46.3177 88.4502 51.9499C89.057 57.7073 88.9795 63.9946 88.6279 69.754C88.181 76.7765 87.3572 83.77 86.1601 90.7041L86.098 91.0489L86.0804 91.1425L86.0742 91.1755L82.1781 90.4533ZM64.2956 64.274C66.8993 62.4955 68.6898 59.7555 69.2733 56.6568C69.8568 53.5581 69.1854 50.3545 67.4069 47.7509C65.6284 45.1472 62.8884 43.3566 59.7897 42.7731C56.691 42.1897 53.4874 42.861 50.8837 44.6396C48.28 46.4181 46.4895 49.1581 45.906 52.2568C45.3225 55.3555 45.9939 58.5591 47.7724 61.1627C49.5509 63.7664 52.2909 65.557 55.3896 66.1405C58.4883 66.7239 61.6919 66.0526 64.2956 64.274Z" fill="#D0D0D0"/>
<mask id="path-5-inside-1_6_13" fill="white">
<path fill-rule="evenodd" clip-rule="evenodd" d="M78.2512 88.9982L82.1462 89.7259C82.0506 90.2388 81.8548 90.7279 81.5698 91.1649C81.2848 91.6019 80.9163 91.9784 80.4855 92.2727C80.0547 92.567 79.57 92.7733 79.0592 92.8798C78.5485 92.9863 78.0217 92.9909 77.5092 92.8934L77.4739 92.8839L77.3802 92.8662L77.0365 92.7987C75.0713 92.3983 73.1125 91.9668 71.161 91.5041C66.2654 90.3487 61.4161 89.0056 56.6236 87.4779C51.134 85.7085 45.2437 83.493 40.1058 80.8403C35.0728 78.2359 30.2731 74.9682 27.4834 70.8842C17.3373 56.0307 21.3554 36.6757 35.7802 26.8224C50.205 16.9691 69.6959 20.2657 79.842 35.1192C82.6317 39.2031 83.9299 44.8626 84.5232 50.4948C85.1301 56.2522 85.0526 62.5395 84.7009 68.2989C84.254 75.3214 83.4302 82.3148 82.2331 89.249L82.1711 89.5937L82.1534 89.6874L82.1472 89.7204L78.2512 88.9982ZM60.3686 62.8189C62.9723 61.0404 64.7629 58.3004 65.3464 55.2017C65.9298 52.103 65.2585 48.8994 63.4799 46.2957C61.7014 43.692 58.9614 41.9015 55.8627 41.318C52.764 40.7346 49.5604 41.4059 46.9568 43.1845C44.3531 44.963 42.5625 47.703 41.979 50.8017C41.3956 53.9004 42.0669 57.1039 43.8455 59.7076C45.624 62.3113 48.364 64.1019 51.4627 64.6853C54.5614 65.2688 57.765 64.5974 60.3686 62.8189Z"/>
</mask>
<path fill-rule="evenodd" clip-rule="evenodd" d="M78.2512 88.9982L82.1462 89.7259C82.0506 90.2388 81.8548 90.7279 81.5698 91.1649C81.2848 91.6019 80.9163 91.9784 80.4855 92.2727C80.0547 92.567 79.57 92.7733 79.0592 92.8798C78.5485 92.9863 78.0217 92.9909 77.5092 92.8934L77.4739 92.8839L77.3802 92.8662L77.0365 92.7987C75.0713 92.3983 73.1125 91.9668 71.161 91.5041C66.2654 90.3487 61.4161 89.0056 56.6236 87.4779C51.134 85.7085 45.2437 83.493 40.1058 80.8403C35.0728 78.2359 30.2731 74.9682 27.4834 70.8842C17.3373 56.0307 21.3554 36.6757 35.7802 26.8224C50.205 16.9691 69.6959 20.2657 79.842 35.1192C82.6317 39.2031 83.9299 44.8626 84.5232 50.4948C85.1301 56.2522 85.0526 62.5395 84.7009 68.2989C84.254 75.3214 83.4302 82.3148 82.2331 89.249L82.1711 89.5937L82.1534 89.6874L82.1472 89.7204L78.2512 88.9982ZM60.3686 62.8189C62.9723 61.0404 64.7629 58.3004 65.3464 55.2017C65.9298 52.103 65.2585 48.8994 63.4799 46.2957C61.7014 43.692 58.9614 41.9015 55.8627 41.318C52.764 40.7346 49.5604 41.4059 46.9568 43.1845C44.3531 44.963 42.5625 47.703 41.979 50.8017C41.3956 53.9004 42.0669 57.1039 43.8455 59.7076C45.624 62.3113 48.364 64.1019 51.4627 64.6853C54.5614 65.2688 57.765 64.5974 60.3686 62.8189Z" fill="#DD2F3C"/>
<path d="M78.7371 93.1273L79.4791 89.2321L77.0233 88.7643L76.2812 92.6595L78.7371 93.1273ZM77.5092 92.8934L76.8596 95.3075L76.9499 95.3318L77.0417 95.3493L77.5092 92.8934ZM78.2512 88.9982L78.7068 86.5401L77.792 91.4557L78.2512 88.9982ZM82.1462 89.7259L84.6039 90.1837L85.0614 87.7273L82.6053 87.2684L82.1462 89.7259ZM77.4739 92.8839L78.1234 90.4697L78.0308 90.4448L77.9365 90.4271L77.4739 92.8839ZM77.3802 92.8662L76.898 95.3193L76.9078 95.3212L76.9176 95.3231L77.3802 92.8662ZM77.0365 92.7987L76.5375 95.2484L76.5459 95.2501L76.5543 95.2517L77.0365 92.7987ZM71.161 91.5041L71.7377 89.0715L71.7352 89.071L71.161 91.5041ZM56.6236 87.4779L55.8567 89.8573L55.8643 89.8598L56.6236 87.4779ZM40.1058 80.8403L38.9568 83.0606L38.9589 83.0617L40.1058 80.8403ZM84.5232 50.4948L82.037 50.7567L82.037 50.7569L84.5232 50.4948ZM84.7009 68.2989L87.1959 68.4576L87.1963 68.4512L84.7009 68.2989ZM82.2331 89.249L84.6936 89.6919L84.6952 89.6831L84.6967 89.6743L82.2331 89.249ZM82.1711 89.5937L84.6279 90.0563L84.6297 90.0465L84.6315 90.0367L82.1711 89.5937ZM82.1534 89.6874L79.6966 89.2248L79.6966 89.2249L82.1534 89.6874ZM82.1472 89.7204L81.6915 92.1785L84.1429 92.6329L84.6041 90.1829L82.1472 89.7204ZM60.3686 62.8189L61.7788 64.8833L60.3686 62.8189ZM77.792 91.4557L81.687 92.1834L82.6053 87.2684L78.7103 86.5407L77.792 91.4557ZM79.6884 89.2682C79.6532 89.4575 79.5809 89.638 79.4757 89.7994L83.6639 92.5304C84.1287 91.8177 84.4481 91.0202 84.6039 90.1837L79.6884 89.2682ZM79.4757 89.7994C79.3704 89.9607 79.2344 90.0997 79.0754 90.2083L81.8956 94.337C82.5982 93.8571 83.1991 93.2431 83.6639 92.5304L79.4757 89.7994ZM79.0754 90.2083C78.9163 90.317 78.7374 90.3931 78.5488 90.4325L79.5696 95.3272C80.4025 95.1534 81.193 94.817 81.8956 94.337L79.0754 90.2083ZM78.5488 90.4325C78.3603 90.4718 78.1658 90.4735 77.9766 90.4375L77.0417 95.3493C77.8776 95.5084 78.7366 95.5009 79.5696 95.3272L78.5488 90.4325ZM78.1587 90.4792L78.1234 90.4697L76.8244 95.298L76.8596 95.3075L78.1587 90.4792ZM77.9365 90.4271L77.8429 90.4094L76.9176 95.3231L77.0112 95.3407L77.9365 90.4271ZM77.8625 90.4132L77.5188 90.3456L76.5543 95.2517L76.898 95.3193L77.8625 90.4132ZM77.5355 90.349C75.5963 89.9539 73.6634 89.5281 71.7377 89.0715L70.5843 93.9367C72.5616 94.4055 74.5463 94.8427 76.5375 95.2484L77.5355 90.349ZM71.7352 89.071C66.902 87.9302 62.1144 86.6043 57.3829 85.096L55.8643 89.8598C60.7178 91.407 65.6288 92.7671 70.5867 93.9373L71.7352 89.071ZM57.3906 85.0984C51.9684 83.3508 46.221 81.184 41.2527 78.6189L38.9589 83.0617C44.2664 85.802 50.2996 88.0662 55.8567 89.8573L57.3906 85.0984ZM41.2547 78.6199C36.3254 76.0691 31.98 73.0348 29.5478 69.4741L25.4191 72.2943C28.5662 76.9015 33.8202 80.4026 38.9568 83.0606L41.2547 78.6199ZM29.5478 69.4741C20.1955 55.7828 23.8834 37.9764 37.1903 28.8868L34.3701 24.758C18.8273 35.3749 14.4791 56.2787 25.4191 72.2943L29.5478 69.4741ZM37.1903 28.8868C50.4972 19.7971 68.4254 22.838 77.7776 36.5293L81.9063 33.709C70.9664 17.6934 49.9128 14.1411 34.3701 24.758L37.1903 28.8868ZM77.7776 36.5293C80.2099 40.09 81.456 45.2413 82.037 50.7567L87.0095 50.2329C86.4038 44.4839 85.0535 38.3163 81.9063 33.709L77.7776 36.5293ZM82.037 50.7569C82.6237 56.3236 82.5528 62.4592 82.2056 68.1465L87.1963 68.4512C87.5523 62.6197 87.6364 56.1808 87.0095 50.2328L82.037 50.7569ZM82.206 68.1401C81.7648 75.0733 80.9515 81.9778 79.7696 88.8237L84.6967 89.6743C85.909 82.6519 86.7433 75.5695 87.1959 68.4576L82.206 68.1401ZM79.7727 88.806L79.7106 89.1508L84.6315 90.0367L84.6936 89.6919L79.7727 88.806ZM79.7142 89.1312L79.6966 89.2248L84.6103 90.1499L84.6279 90.0563L79.7142 89.1312ZM79.6966 89.2249L79.6904 89.2579L84.6041 90.1829L84.6103 90.1499L79.6966 89.2249ZM82.6029 87.2623L78.7068 86.5401L77.7955 91.4563L81.6915 92.1785L82.6029 87.2623ZM61.7788 64.8833C64.93 62.7308 67.097 59.4146 67.8032 55.6643L62.8895 54.7391C62.4287 57.1862 61.0147 59.35 58.9585 60.7546L61.7788 64.8833ZM67.8032 55.6643C68.5094 51.914 67.6968 48.0368 65.5443 44.8856L61.4156 47.7059C62.8201 49.762 63.3503 52.292 62.8895 54.7391L67.8032 55.6643ZM65.5443 44.8856C63.3918 41.7344 60.0756 39.5674 56.3253 38.8612L55.4001 43.7749C57.8472 44.2356 60.011 45.6497 61.4156 47.7059L65.5443 44.8856ZM56.3253 38.8612C52.575 38.155 48.6978 38.9676 45.5466 41.1201L48.3669 45.2488C50.4231 43.8443 52.953 43.3141 55.4001 43.7749L56.3253 38.8612ZM45.5466 41.1201C42.3954 43.2726 40.2284 46.5888 39.5222 50.3391L44.4359 51.2643C44.8967 48.8172 46.3107 46.6533 48.3669 45.2488L45.5466 41.1201ZM39.5222 50.3391C38.8161 54.0893 39.6286 57.9666 41.7811 61.1178L45.9098 58.2975C44.5053 56.2413 43.9751 53.7114 44.4359 51.2643L39.5222 50.3391ZM41.7811 61.1178C43.9336 64.2689 47.2498 66.436 51.0001 67.1422L51.9253 62.2285C49.4782 61.7677 47.3144 60.3537 45.9098 58.2975L41.7811 61.1178ZM51.0001 67.1422C54.7504 67.8483 58.6276 67.0358 61.7788 64.8833L58.9585 60.7546C56.9023 62.1591 54.3724 62.6893 51.9253 62.2285L51.0001 67.1422Z" fill="#F0F3F7" mask="url(#path-5-inside-1_6_13)"/>
<path fill-rule="evenodd" clip-rule="evenodd" d="M158.648 121.038L159.756 123.87C159.383 124.016 158.985 124.087 158.584 124.079C158.184 124.071 157.789 123.984 157.423 123.823C157.056 123.661 156.725 123.43 156.448 123.14C156.172 122.851 155.955 122.509 155.81 122.136L155.802 122.109L155.776 122.041L155.68 121.79C155.143 120.347 154.629 118.896 154.138 117.437C152.904 113.78 151.81 110.076 150.86 106.335C149.784 102.041 148.836 97.3054 148.478 92.8823C148.131 88.547 148.311 84.0945 149.839 80.6198C155.394 67.9823 169.632 62.7427 181.904 68.138C194.177 73.5334 199.942 87.5662 194.386 100.204C192.859 103.678 189.7 106.821 186.272 109.494C182.769 112.226 178.642 114.728 174.748 116.837C169.993 119.396 165.104 121.698 160.101 123.734L159.852 123.833L159.784 123.86L159.76 123.869L158.648 121.038ZM168.44 98.7645C170.656 99.7383 173.167 99.7923 175.422 98.9145C177.677 98.0367 179.491 96.2991 180.465 94.0838C181.439 91.8685 181.493 89.3571 180.615 87.1021C179.737 84.847 178 83.033 175.784 82.0591C173.569 81.0853 171.058 81.0313 168.803 81.9091C166.548 82.7869 164.734 84.5245 163.76 86.7398C162.786 88.9551 162.732 91.4665 163.61 93.7215C164.487 95.9766 166.225 97.7906 168.44 98.7645Z" fill="#D0D0D0"/>
<path d="M157.551 116.724L155.895 117.365C155.474 116.212 155.068 115.054 154.677 113.891L154.676 113.889C153.452 110.263 152.368 106.59 151.425 102.881C150.358 98.6223 149.428 93.9613 149.078 89.6343C148.736 85.3572 148.937 81.1592 150.337 77.9746C155.609 65.9812 169.102 61.0111 180.755 66.134C192.408 71.257 197.868 84.559 192.596 96.5524C191.196 99.737 188.238 102.723 184.857 105.36L184.857 105.36C181.43 108.033 177.37 110.497 173.508 112.589C169.056 114.985 164.486 117.153 159.815 119.087L159.166 117.435L159.166 117.433L158.002 117.889L157.551 116.724ZM157.306 119.541C157.297 119.538 157.288 119.534 157.28 119.53C157.271 119.526 157.263 119.523 157.255 119.519L157.291 119.505L157.306 119.541ZM167.291 96.7604C169.81 97.8677 172.665 97.9291 175.229 96.9311C177.793 95.933 179.856 93.9573 180.963 91.4385C182.07 88.9198 182.132 86.0643 181.134 83.5003C180.136 80.9363 178.16 78.8738 175.641 77.7665C173.122 76.6592 170.267 76.5979 167.703 77.5959C165.139 78.594 163.076 80.5697 161.969 83.0884C160.862 85.6072 160.801 88.4626 161.799 91.0266C162.797 93.5906 164.772 95.6532 167.291 96.7604Z" fill="#DD2F3C" stroke="#F0F3F7" stroke-width="2.5"/>
<path fill-rule="evenodd" clip-rule="evenodd" d="M122.029 111.103L123.292 111.949C123.181 112.115 123.038 112.258 122.871 112.369C122.704 112.48 122.517 112.556 122.321 112.595C122.125 112.633 121.923 112.633 121.726 112.593C121.53 112.553 121.344 112.475 121.178 112.363L121.167 112.354L121.137 112.334L121.026 112.258C120.394 111.82 119.769 111.371 119.151 110.912C117.601 109.764 116.095 108.556 114.637 107.292C112.97 105.838 111.23 104.165 109.82 102.452C108.441 100.772 107.244 98.8939 106.879 97.0322C105.552 90.2611 109.898 84.0478 116.474 82.7589C123.05 81.4701 129.42 85.5829 130.747 92.354C131.112 94.2158 130.713 96.407 130.069 98.4819C129.412 100.603 128.432 102.807 127.436 104.784C126.216 107.191 124.867 109.531 123.395 111.794L123.321 111.906L123.3 111.936L123.293 111.947L122.029 111.103ZM119.69 99.1685C120.877 98.9358 121.923 98.2412 122.598 97.2374C123.273 96.2336 123.521 95.0029 123.288 93.816C123.056 92.629 122.361 91.5831 121.357 90.9084C120.354 90.2336 119.123 89.9852 117.936 90.2178C116.749 90.4504 115.703 91.1451 115.028 92.1488C114.354 93.1526 114.105 94.3834 114.338 95.5703C114.57 96.7572 115.265 97.8031 116.269 98.4779C117.273 99.1527 118.503 99.4011 119.69 99.1685Z" fill="#D0D0D0"/>
<path d="M118.434 109.202C116.899 108.066 115.409 106.87 113.966 105.619C112.315 104.179 110.609 102.537 109.236 100.869C107.879 99.2158 106.78 97.4557 106.451 95.7805C105.205 89.4237 109.277 83.5982 115.455 82.3875C121.632 81.1768 127.602 85.0341 128.848 91.3909C129.176 93.0661 128.822 95.111 128.189 97.1523L128.189 97.1523C127.549 99.2182 126.589 101.381 125.603 103.338C124.482 105.55 123.25 107.705 121.914 109.794L121.283 109.372L121.282 109.372L120.865 109.995L120.244 109.575L119.819 110.205C119.353 109.876 118.892 109.542 118.434 109.203L118.434 109.202ZM118.671 98.797C120.053 98.5261 121.271 97.7173 122.057 96.5484C122.842 95.3796 123.132 93.9464 122.861 92.5643C122.59 91.1822 121.781 89.9643 120.612 89.1785C119.443 88.3928 118.01 88.1035 116.628 88.3744C115.246 88.6453 114.028 89.4541 113.242 90.623C112.456 91.7919 112.167 93.225 112.438 94.6071C112.709 95.9893 113.518 97.2072 114.687 97.9929C115.856 98.7787 117.289 99.0679 118.671 98.797Z" fill="#DD2F3C" stroke="#F0F3F7" stroke-width="1.5"/>
<path d="M174.788 43.8945L168.289 46.0582C167.906 46.1863 167.556 46.3993 167.266 46.6814C166.977 46.9635 166.754 47.3074 166.616 47.6874L162.216 59.5876C162.075 59.9694 161.851 60.3146 161.558 60.5977C161.266 60.8809 160.914 61.0946 160.528 61.2231C160.142 61.3517 159.732 61.3917 159.328 61.3403C158.924 61.2889 158.538 61.1473 158.196 60.9261L147.541 54.0388C147.202 53.8172 146.817 53.6752 146.416 53.6232C146.014 53.5712 145.606 53.6107 145.222 53.7387L138.757 55.8912C134.48 57.3154 129.89 55.0184 128.466 50.741L122.467 32.7257C121.043 28.4483 123.34 23.8583 127.617 22.4341L163.648 10.4374C167.928 9.01241 172.515 11.3102 173.94 15.5876L179.938 33.603C181.362 37.8803 179.068 42.4695 174.788 43.8945Z" fill="#D0D0D0"/>
<path d="M166.589 43.9685L166.589 43.9689C166.026 44.1565 165.514 44.4687 165.089 44.8821C164.666 45.2947 164.34 45.7975 164.138 46.353C164.137 46.3542 164.137 46.3553 164.136 46.3564L159.739 58.2504L159.738 58.2516C159.662 58.4575 159.541 58.6436 159.383 58.7963C159.226 58.9489 159.036 59.0642 158.828 59.1335C158.62 59.2028 158.399 59.2244 158.181 59.1966C157.963 59.1689 157.755 59.0926 157.571 58.9733L157.57 58.9726L146.92 52.0889C146.919 52.0883 146.918 52.0876 146.917 52.0869C146.421 51.7634 145.858 51.5559 145.271 51.4799C144.683 51.4037 144.085 51.4615 143.522 51.649C143.522 51.649 143.522 51.649 143.522 51.6491L137.057 53.8015C133.435 55.0076 129.553 53.0648 128.346 49.4425L122.348 31.4271C121.142 27.8048 123.085 23.9225 126.707 22.7164L162.738 10.7197C166.363 9.51289 170.242 11.4562 171.449 15.0788L177.447 33.0941C178.653 36.7168 176.713 40.598 173.088 41.8049L166.589 43.9685Z" fill="#8E44AD" stroke="#F0F3F7" stroke-width="2.5"/>
<circle cx="136.163" cy="36.6546" r="3.36728" transform="rotate(-18.3693 136.163 36.6546)" fill="#F0F3F7"/>
<circle cx="150.011" cy="32.0562" r="3.36728" transform="rotate(-18.3693 150.011 32.0562)" fill="#F0F3F7"/>
<circle cx="164.924" cy="27.1041" r="3.36728" transform="rotate(-18.3693 164.924 27.1041)" fill="#F0F3F7"/>
</svg>
